<svg width="37" height="37" viewBox="0 0 37 37" fill="none" xmlns="http://www.w3.org/2000/svg">
<path d="M29.2917 4.625H7.70833C6.0125 4.625 4.625 6.0125 4.625 7.70833V29.2917C4.625 30.9875 6.0125 32.375 7.70833 32.375H29.2917C30.9875 32.375 32.375 30.9875 32.375 29.2917V7.70833C32.375 6.0125 30.9875 4.625 29.2917 4.625ZM29.2917 29.2917H7.70833V7.70833H29.2917V29.2917Z" fill="white"/>
<path d="M11.5625 27.75C12.8397 27.75 13.875 26.7147 13.875 25.4375C13.875 24.1603 12.8397 23.125 11.5625 23.125C10.2853 23.125 9.25 24.1603 9.25 25.4375C9.25 26.7147 10.2853 27.75 11.5625 27.75Z" fill="white"/>
<path d="M11.5625 13.875C12.8397 13.875 13.875 12.8397 13.875 11.5625C13.875 10.2853 12.8397 9.25 11.5625 9.25C10.2853 9.25 9.25 10.2853 9.25 11.5625C9.25 12.8397 10.2853 13.875 11.5625 13.875Z" fill="white"/>
<path d="M18.5 20.8125C19.7772 20.8125 20.8125 19.7772 20.8125 18.5C20.8125 17.2228 19.7772 16.1875 18.5 16.1875C17.2228 16.1875 16.1875 17.2228 16.1875 18.5C16.1875 19.7772 17.2228 20.8125 18.5 20.8125Z" fill="white"/>
<path d="M25.4375 27.75C26.7147 27.75 27.75 26.7147 27.75 25.4375C27.75 24.1603 26.7147 23.125 25.4375 23.125C24.1603 23.125 23.125 24.1603 23.125 25.4375C23.125 26.7147 24.1603 27.75 25.4375 27.75Z" fill="white"/>
<path d="M25.4375 13.875C26.7147 13.875 27.75 12.8397 27.75 11.5625C27.75 10.2853 26.7147 9.25 25.4375 9.25C24.1603 9.25 23.125 10.2853 23.125 11.5625C23.125 12.8397 24.1603 13.875 25.4375 13.875Z" fill="white"/>
</svg>
