<svg width="56" height="56" viewBox="0 0 56 56" fill="none" xmlns="http://www.w3.org/2000/svg">
<path d="M44.3333 7H11.6667C9.1 7 7 9.1 7 11.6667V44.3333C7 46.9 9.1 49 11.6667 49H44.3333C46.9 49 49 46.9 49 44.3333V11.6667C49 9.1 46.9 7 44.3333 7ZM44.3333 44.3333H11.6667V11.6667H44.3333V44.3333Z" fill="#FEAF30"/>
<path d="M17.5 42C19.433 42 21 40.433 21 38.5C21 36.567 19.433 35 17.5 35C15.567 35 14 36.567 14 38.5C14 40.433 15.567 42 17.5 42Z" fill="#FEAF30"/>
<path d="M17.5 21C19.433 21 21 19.433 21 17.5C21 15.567 19.433 14 17.5 14C15.567 14 14 15.567 14 17.5C14 19.433 15.567 21 17.5 21Z" fill="#FEAF30"/>
<path d="M28 31.5C29.933 31.5 31.5 29.933 31.5 28C31.5 26.067 29.933 24.5 28 24.5C26.067 24.5 24.5 26.067 24.5 28C24.5 29.933 26.067 31.5 28 31.5Z" fill="#FEAF30"/>
<path d="M38.5 42C40.433 42 42 40.433 42 38.5C42 36.567 40.433 35 38.5 35C36.567 35 35 36.567 35 38.5C35 40.433 36.567 42 38.5 42Z" fill="#FEAF30"/>
<path d="M38.5 21C40.433 21 42 19.433 42 17.5C42 15.567 40.433 14 38.5 14C36.567 14 35 15.567 35 17.5C35 19.433 36.567 21 38.5 21Z" fill="#FEAF30"/>
</svg>
