<svg width="30" height="30" viewBox="0 0 30 30" fill="none" xmlns="http://www.w3.org/2000/svg">
<path d="M25 2.5H10C8.625 2.5 7.5 3.625 7.5 5V20C7.5 21.375 8.625 22.5 10 22.5H25C26.375 22.5 27.5 21.375 27.5 20V5C27.5 3.625 26.375 2.5 25 2.5ZM25 20H10V5H25V20ZM15.625 18.75C17.35 18.75 18.75 17.35 18.75 15.625V8.75H22.5V6.25H17.5V13.1375C16.975 12.7375 16.3375 12.5 15.625 12.5C13.9 12.5 12.5 13.9 12.5 15.625C12.5 17.35 13.9 18.75 15.625 18.75ZM5 7.5H2.5V25C2.5 26.375 3.625 27.5 5 27.5H22.5V25H5V7.5Z" fill="white"/>
</svg>
